<?xml version="1.0" standalone="no"?>
<!DOCTYPE svg PUBLIC "-//W3C//DTD SVG 20010904//EN"
 "http://www.w3.org/TR/2001/REC-SVG-20010904/DTD/svg10.dtd">
<svg version="1.0" xmlns="http://www.w3.org/2000/svg"
 width="700.000000pt" height="700.000000pt" viewBox="0 0 700.000000 700.000000"
 preserveAspectRatio="xMidYMid meet">
<metadata>
Created by potrace 1.14, written by Peter Selinger 2001-2017
</metadata>
<g transform="translate(0.000000,700.000000) scale(0.100000,-0.100000)"
fill="#000000" stroke="none">
<path d="M3289 6926 c-2 -2 -42 -6 -89 -10 -47 -3 -94 -8 -105 -10 -11 -2 -46
-7 -79 -11 -67 -8 -84 -11 -186 -31 -684 -137 -1305 -477 -1789 -978 -127
-131 -118 -121 -187 -206 -331 -407 -554 -849 -683 -1352 -25 -95 -53 -244
-75 -398 -21 -148 -29 -576 -13 -730 4 -41 10 -95 12 -120 7 -67 43 -264 65
-360 11 -47 23 -96 26 -110 13 -60 90 -285 136 -398 125 -310 317 -633 519
-877 406 -488 906 -845 1479 -1055 230 -85 570 -167 760 -185 19 -2 73 -7 120
-12 159 -15 646 -7 720 12 8 2 37 6 64 10 99 12 224 36 338 65 964 244 1758
870 2221 1750 184 351 322 797 362 1170 3 30 10 89 14 130 9 78 7 556 -2 600
-3 14 -8 54 -12 88 -6 66 -43 291 -50 301 -1 3 -6 22 -9 41 -30 184 -159 544
-284 792 -489 964 -1388 1637 -2452 1834 -41 7 -50 9 -155 23 -44 6 -100 13
-125 16 -51 7 -534 17 -541 11z m446 -190 c99 -8 282 -30 335 -41 14 -3 34 -7
45 -9 361 -75 684 -193 970 -356 22 -13 49 -28 60 -34 62 -34 272 -178 359
-246 154 -120 389 -352 512 -505 382 -474 621 -1026 699 -1615 3 -25 8 -56 10
-70 30 -195 19 -660 -21 -870 -2 -14 -7 -41 -10 -60 -3 -19 -19 -93 -35 -165
-56 -240 -144 -485 -254 -705 -66 -132 -182 -333 -197 -338 -4 -2 -8 -8 -8
-14 0 -13 -159 -227 -233 -313 -95 -111 -313 -323 -423 -412 -96 -77 -313
-231 -379 -267 -16 -9 -46 -26 -65 -38 -243 -147 -688 -311 -980 -362 -19 -3
-46 -8 -60 -11 -119 -25 -397 -49 -565 -49 -91 0 -336 13 -344 18 -3 2 -37 7
-76 11 -38 3 -92 11 -120 17 -27 5 -63 12 -80 15 -57 9 -260 62 -360 93 -248
77 -552 222 -784 374 -72 47 -137 90 -144 96 -6 6 -37 29 -67 52 -129 98 -362
318 -475 448 -156 179 -334 445 -441 660 -232 465 -347 950 -347 1455 0 114
11 344 17 354 2 3 7 40 11 81 4 41 9 77 10 80 2 3 6 26 10 50 3 25 15 86 27
135 11 50 21 98 23 108 14 65 81 272 125 382 131 331 320 646 549 915 94 112
321 332 436 424 116 94 383 276 403 276 7 0 12 3 12 8 0 4 10 12 23 18 12 6
76 38 142 72 236 120 588 243 790 277 17 3 64 12 105 20 112 21 212 33 340 41
63 3 116 7 117 8 5 4 262 -2 338 -8z"/>
<path d="M4136 5663 c-14 -14 -26 -33 -27 -42 0 -9 -1 -446 -1 -971 l-1 -955
-726 -5 c-714 -5 -727 -6 -783 -27 -138 -52 -257 -157 -310 -273 -55 -120 -52
-79 -55 -828 -3 -743 -3 -741 46 -757 49 -15 63 -13 94 14 l32 29 1 688 c1
687 1 689 23 746 31 80 106 159 189 200 l67 33 710 0 710 0 0 -833 1 -833 24
-24 c45 -44 113 -35 137 18 8 17 11 547 10 1910 l-2 1886 -21 22 c-33 32 -87
33 -118 2z"/>
</g>
</svg>
