<svg enable-background="new 0 0 684.7 417.6" viewBox="0 0 684.7 417.6" xmlns="http://www.w3.org/2000/svg"><g clip-rule="evenodd" fill-rule="evenodd"><path d="m130.4 248.1 1.8 22.7 34.2 8.1 26.2 11.8 20.8 18.1 9.9-8.2 12.6-28 14.4-2.8 52.4 5.5 18 5.4-6.3 30.8-6.3 22.6 104.6-6.3-3.6-52.5-21.6-48-85.7-41.6-64.1 8.1-45.1 49.8-19.8 10.9-35.2-1.9" fill="#2d4cc8"/><path d="m561.9 40.1c7.1 8.6-3.3 20.7-9.2 26.7-2.9 2.9-5.2 6.3-8 9.2s-6.2 5.3-8.7 8.1c-2.6 3-5.6 6.2-7.8 9.6-1.4 2.1-3.4 4.5-4.1 7-1 3.5-.2 1.5 1.1 3.5s1.8 2.2 2.2 5 1.1 4.8 2.6 7.2c2.5 3.9 5.1 7.6 6.9 11.9 2.3 5.7 4 11.6 5.8 17.5.7 2.3 1.2 4.9 2.4 7.1 1.6 3 1.9 2.8 4.3.9 7.3-5.6 14.7-11.5 22.4-16.9 4.4-3.1 8.9-6.1 13.5-8.7 3.2-1.8 10-5.1 11.6-8.5 2.1-4.5-1.2-8.7 3.3-12.9 2.9-2.7 7.7-4.2 11.5-4.9 5.4-.9 11.4.4 16.8.9 5.5.5 10.8 0 16.1-1.2 8.2-1.7 23.9-11.2 29.2.2 2.3 5 .8 10.5.3 15.6-.4 4.4-1.7 9.2-4.4 12.8-3.2 4.2-7.8 4.4-12.5 5.5-5.7 1.3-11.4 1.8-17.1 3.1-2.8.6-5.5.9-8.4 1.1-2.5.1-6.2-.9-8.5-.6-2.1.3-1.4 1.6-2.9 2.6-.6.4-1.8.1-2.2.4-1 .8-1.3 1.6-2.1 3.1-2.4 4.8-6 9.5-9.1 13.8-2.6 3.7-5.6 8.2-8.7 11.5-6.5 7-12.8 14.7-19.1 22-3.3 3.7-7.1 7.7-10.9 10.9-1.2 1-3.5 1.9-4.1 3.3-.9 2 1.5 6.3 2 8.3 1.3 4.7 1.5 9.6 2.8 14.2 1.3 4.4 1.8 9.3 2.1 13.9.7 10.4 2.1 20.3 1.7 30.8-.3 9-.6 17.6-3.7 26.5-2.8 8-11.4 16.8-19.3 19.8-4.7 1.8-9.1 3.4-13.9 4.3-4.7.9-9.6 1.9-14.3 3.2-8.6 2.5-17.8 4.2-26.7 5-11.5 1.1-23.5 1.2-34.9.8-5.2-.2-10.6-.2-15.8-.2-5.3 0-10.4 1.1-15.7 1.6-18.9 2-38.8.4-57.6 2.3-9.3 1-18.6 2.8-28.1 2.9-8.5.1-17.1-.5-25.4-.5-2.6 0-4.9.2-7.6-.4-1.4-.3-3.3-1.6-4.7-.8-1.2.6-2.1 3.3-2.9 4.4-1.7 2.4-3.7 4.4-5.8 6.4-8.5 8.1-16.8 10.8-27.9 13.7-5.1 1.4-7.6 2.1-11.9 5.2-3.5 2.5-7 4.3-11 5.8-7.9 2.9-17.1.7-24.5-1.9-3.6-1.2-7.3-2.3-11-3.8-5-2-9.1-5.3-14-7.3.6 5.2-5.1 7-6.8 10.5-1.1 2.3-.4 5.8-1.6 8.4-1.1 2.4-2.8 4.6-5.5 5.3-3.6.8-10.1-3.2-12.6-5.5-1.4-1.3-2.7-4.8-4.4-5.4-2.3-.8-6.4 2.6-8.5 3.3-10.2 3.6-20.6 5.3-31.5 3.9-11.1-1.5-21.3-5.4-31.7-9.1-20.4-7.3-38.2-19.4-54.1-33.9-.9-.8-2.2-1.5-2.8-2.6-.5-.9-.5-3.1-.8-3.6-1-1.5-2.6-1.3-4.6-1.4-6-.5-10.8-1.9-15.5-6-7.4-6.4-10.1-21.2 1.2-25.1 2.9-1 6.1-1.2 9-.6 1.2.3 5.8 3 7 2.8 1.8-.3 1.4-2.6 1.9-3.8 1.2-3.1 2.9-5.8 4.9-8.4 3.4-4.4 7.5-8.7 11.7-12.3 4.6-3.9 9.6-5.6 15-7.7 3.7-1.4 10.8-3.9 14.7-2.6 5.1 1.7 2.6 7.2-.6 9.1-4.6 2.8-10 3.9-14.6 6.7-5.1 3.1-9.7 7.3-14.4 11-3.7 3-7 6.7-10.8 9.5-1 .8-2.7 2.1-3 2.5-.1.1 0 1.3-.5 1.8-2.2 2.3-1.7 2.1-5 1.2-3.9-1-13.3-3.1-16 1.7-2.4 4.4 7.4 8.3 10.6 9.7 4.7 2 5.8 3.9 9.2 7.7s9.2 6.4 13.5 9.3c9.3 6.2 19.8 10.6 29.8 15.5 9.7 4.8 20.2 8.2 30.3 11.6 6.1 2 13.4 4.2 19.9 4.8s12.5-.4 18.9-1.7c2.5-.5 4.5-.9 7.1-1.8 1.2-.4 3.1-.5 4-1.2 1.5-1.1.9-2 1.1-4 1.1-8.5 7 1 9.6 3.8 2 2.2 4 4.8 6.6 6.2 3.3 1.7 3.9.9 5-1.9 2-5.3 2.8-11.4 10.5-10.6-6.1-5.2-11.8-9.6-17-15.8-5.1-6.1-9.9-12.7-14.8-19.1-4-5.2-7.5-12.3-12.7-16.4-1.6-1.3-6.7-4.3-8.6-4.2-2.9.1-5.4 4.8-8.5 5.1-3.4.4-5-.8-5.9-3.5-1-2.9 1.4-6.2.6-8.2-.2-.6-1.7-1.3-2.1-2.1-.7-1.3-.7-2.9-.5-4.3.3-2.1 1-2.9.9-5-.2-2.4-1.3-4.2-.4-6.8.9-2.7 3.6-4.2 5.3-6.1 2.6-3 1.3-5.3.2-9.1-2.2-8.2-4.8-16.4-7-24.6-5.2 1.6-10.2 3.5-15.4 5-5 1.5-11.1 2.8-15.8 5.1-2.8 1.4-2 .1-1.8 3.2.1 2 1 4.2 1.4 6.2.7 3.6 1 13 3.9 14.7 1.7 1.1 4.5-.5 6.4 1.6 1.6 1.8 1.1 4.4 2.1 6.4.6 1.2 1.7 1.7 2.5 2.8 1.5 2.4 1.3 4.4 1.6 7 .2 1.7-.1 6.7.7 8 1.1 1.7 3.3 1.4 5.2 2 4.7 1.4 9 3.7 12.9 6.5 2.1 2.5 16.8 17.2 10.4 19.1-3.1.9-8.5-6-10.8-7.9-3.4-2.9-7.1-4.9-11.3-6.5-10.2-3.9-19.5-7.5-30.7-5.9-4.8.7-10.6 2.8-15.4 2.4-4.8-.5-3.6-4.8-.6-7.2 2.7-2.2 6.5-1.5 7.7-5.2 1.2-3.6-.1-8.3 1.8-11.9 1.6-3.1 5.5-6.4 8.5-8.2 1.3-.8 3.5-1.3 4.2-2.5.6-1-1.7-6.4-2.1-7.5-1.6-5.6-3.3-11.1-4.6-16.8-1.2-5.2-1.5-7.9 3.9-9.8 8.4-2.9 17.2-4.2 25.5-6.9-1.5-3.9-6.1-.6-9.5-.7-4.1-.2-8.8-1.5-12.7-2.8-8.8-2.9-14.8-10-16.2-19.1-.3-2 .6-6-.1-7.8-.7-1.7-2.6-2.5-4.1-3.7-3.7-3.1-6.9-7.3-8.9-11.7s-2.1-9.3-1-14c.6-2.6 1-2.9.1-5.3-1-2.8-2.7-5.3-3.7-8.1-1.6-4.7-2.4-9.8-2.3-14.7.1-5.6 2.3-8.1 3.8-13 1.2-3.9-.4-9.2-.2-13.5.3-5.5 1.7-9.9 4.2-14.8 3.7-7.5 9.7-15.6 17.3-19.5 1.5-.8 4-.8 5.4-1.7 1.7-1.1 1.8-2.8 2.5-4.8 1.6-4.7 3.5-8.5 7-12.1 11.1-11.7 30.5-15.8 46-14.8 2.8.2 5.5 1.5 8.1.7 1.8-.5 3.8-2.4 5.7-3.2 2.4-1 4.8-1.6 7.4-1.8 5.1-.5 9.2 0 13.9 1.7 1.8.6 3.5 1.4 5.2 2.1 2.8 1.1 2.6.6 5.2.1 5.2-1 8.1-.3 12.7 1.9 1.2.6 3.1 1 4.2 1.8 1.5 1.2 2.1 4.7 3.7 5.4.9.4 3.7-1 4.9-1.2 2.1-.3 4.1 0 6.2-.1 3.7 0 7.6.1 10.9 1.8 2.5 1.3 5.6 3.8 7.7 5.5 3 2.3 4.9 6.7 8.6 7.9 1.5.5 3.1 0 4.6.4 2 .5 3.8 1.9 5.4 3.2 2.7 2.2 5 7.2 7.8 8 1.9.6 4.7 0 6.9.6 2.7.8 4.9 1.9 6.8 3.9 3.8 3.8 4.8 9.5 5 14.7 0 1.4-.8 5.4 0 6.6.7 1.1 3.6 1.7 4.7 2.9 3.6 3.5 5.2 9.5 5.6 14.3.4 5.5-1 9.5-2 14.8-.6 3.3-1.4 1.2 1.4 3.1 1.9 1.3 3.2 2.3 4.5 4.4 2.6 4.4 3.3 9.6 2.8 14.6-.5 6.2-3.7 10.9-5.1 16.8 6.6 0 13.6 1.7 20 2.9 2.4.4 4.2 1.7 6.3 2.8 1.8.9 3.2 1 4.9 1.6 4.1 1.4 3.3 1.2 6.2-1.8 11.5-11.8 27.8-18.9 44.2-18.6 9.2.1 18.1 1.3 26.6 4.6 3.6 1.4 7.5 2.8 10.7 5 3.7 2.5 4.2 2.5 9 2.6 17.5.4 34.5 9.8 47.2 21.2 1.1-7.6 13.5-12.2 19.6-15.4 2.1-1.1 3.9-1.6 5-3.7.9-1.9.9-5.8 1.5-8 1.2-4.1 2.5-9.1 2.4-13.5-.3-12.5-3.2-25-3.6-37.6-.1-3.2-.5-6.7 0-9.8.3-2.5 1.5-4.1-.2-6.4-3.1-4.4-8.9-5.5-10.9-11.3-3.1-9.4 2.2-19 9.6-24.6 4.2-3.2 8.4-3.9 11.8-8.4 3.1-4.1 5.6-8.9 9.1-12.5 2.9-3.1 5.6-7.2 8.9-9.8 3.4-2.6 8.5-4.4 12.6-5.7 9.7-3.2 21.8-2.5 28.7 5.9zm-307.3 235.7c-2.3.1-4.6.4-6.9.4-1.4 0-4.6-.8-5.9-.2-2.5 1.1-4.5 6.9-5.7 9.2-3.8 7.5-6.8 15.4-10.5 22.9-1.9 3.9-4.8 6.5-9.4 6.6-5.1.1-7.5-3.2-10.7-6.5-6.5-6.7-15.1-12.4-23.1-17.1-8.6-5-19-9.9-28.8-11.7-6.6-1.2-21.6-6.3-25.6 2 2-.3 9.8-1.5 10.2 2 .2 2.6-9.3 3-10.5 7.1 2.5-.2 11.1-2.6 11.8 1.1.3 2-3.3 3-4.6 3.6-2.5 1.3-4 2.7-6 4.7 3.1 0 6.1-2.6 9-2.3 1.2.1 2.6 1.9 3.7 2.4 1.5.8 3.2 1.2 4.9 1.4 3.7.5 6-.6 8.9 1.8 2.7 2.2 5.4 5 7.9 7.4 5.2 5.2 9.5 11.7 14 17.5 5.5 7.2 11.3 12.8 18.6 18.2 6 4.4 12.1 7.2 18.8 10.4 6.7 3.1 15 6.8 22.6 7 6 .1 13.6-1.8 19-4.4 3.2-1.5 4.3-1.5 7.5-2.1 5-.9 10.7-3.6 15.3-5.7 14.4-6.5 23.5-20.8 30-34.8 3.7-8 6-15.7 7.5-24.3.8-4.7 1.6-5.8-3-7.7-4.6-2-9.6-3.2-14.4-4.5-14-4.1-30.1-5-44.6-4.4zm34.4-84.8c-1.4.6-2.2 7.6-2.8 9.1-2.9 6.9-8 11.1-15.5 11.9-2.3.2-6.1-1.9-7.8-.9-2.2 1.3-2.6 7.7-5 9.8-2.2 1.9-6.8 4-9.6 4.7-2.2.6-4.4.4-6.5-.1-1.2-.3-3.6-1.8-4.8-1.2-2.1 1-3 6.2-5.4 8-3.5 2.6-9 4.5-13.2 4.5-4.4-.1-9.6-3.5-13.5-2.7-4.6 1-4 5.3-6 8.6-4.3 7.1-9.1 13.3-16.8 16.7-8.3 3.7-20.2 4.1-29 2.3-4.7-1-9.5-2.5-13.5-5.2-3.2-2.2-5.6-5.1-8.5-7.5l-.5-.4v.1c.1.2.1.5.2.7 1.4 4.5 2 12.4 4.8 16.1 2.5 3.3 11.2 3.5 15.4 3.9 11.2 1.2 20.8 3.8 30.7 9.4 9.5 5.4 18.1 11.9 26.3 18.9 1.7 1.4 3 3.8 5.1 4.7 3.3 1.5 3.1-.3 3.9-3.2 1.8-6.1 3.7-12.1 6.5-17.8 1.2-2.5 3.9-5.5 4.4-8.1.5-2.5-.6-5.2-.2-7.9 1-6.8 4-12.6 7.9-18 2.7-3.8 10.6-10.3 9.6-.7-.8 7.1-5.9 13.3-7.2 20.3 3.9-.7 6.4-.5 9.9-.3 4.8.3 10.3-1.6 15.2-1.6 9.5 0 18.9.6 28.2 2.3 4.3.8 8.4 1.7 12.6 3.2 3.3 1.2 7.6 4.9 11.1 5.2 2.5.2 1.6.5 2.3-1.6.6-2 0-5.6-.2-7.7-.3-4.8-1.4-9.4-2-14.1-.3-2-2.7-10.5-.1-12.1 3.9-2.5 5.5 7.3 6 9.1 2.5 9 4.2 17.9 4.1 27.4-.1 8.2-.6 16-2.1 24.1-.9 4.8-2.6 9.4-4.4 13.9-1 2.4-6.7 11.4-5.9 12.9.6 1.3 10.4-.9 11.9-1.1 5.3-.5 10.7-.1 16-.5 7.9-.5 15.9-.4 23.4-1.8 4.5-.8 9.3 0 13.8 0 5 0 9.8-.4 14.8 0 3.8.4 9.5 2.4 13.2 1.5 3.8-.9 2.6-3.4 2.7-7.2.1-9.2-.8-19.9-2.8-28.8-1.1-4.7-2.6-9.3-3.3-14.1-.8-4.8-.7-10-2.2-14.7-2.6-8.3-9.7-15.5-15.5-21.6-6-6.3-12.8-10.9-20.2-15.4-6.3-3.8-12.9-7.4-19.8-10.4-8.2-3.6-17.5-5.8-25.1-10.6-6.3-3.9-15.4-7.8-22.7-9.7-1.2-.2-7.1-2.7-7.9-2.3zm224.8-76.4c-5.3.7-15.1-1.8-15.1 5.4 0 4 1.3 8.1 1.7 12.1.4 4.7.1 9.4.9 14.1 1.2 7.6 2.9 14.5 2.3 22.3-.6 8.4-2.4 16.6-2.2 25.1.2 8.2-.3 16 3.6 23.5 1.6 3.2 3 6.9 4.8 9.8 2.1 3.5 3.9 4.5 7.7 5.9 2.4.9 8.2 2 9.7 4.4 2.2 3.4-.7 4.8-3.6 4.7-9-.4-18.2-4.4-26.6-7.3-4-1.4-7.8-3.1-11.6-4.6-3.1-1.2-5.6-1.6-8.5-3.7-6.9-5-12.2-11.9-19-17-12.8-9.7-28.2-15.4-44.3-17.2-4.1-.4-7.4-.2-11.5.1-2.3.2-4.6.3-6.9.7-1.3.2-6.3 2.6-7.3 2.1-6.7-3.2 12.2-12.8 14.3-13.4-2.7-1.9-8.3-1.6-11.5-2-4.1-.5-8.1-1.1-12.3-.8-5.8.3-12 .1-17.7 1.4-7.1 1.6-13.9 4-20.3 7.4-2.2 1.1-5.2 2.5-5.2 5.6 0 3 1.2 2.5 4.1 3.1 7.7 1.8 14.9 6.9 21.8 10.8 7.3 4.2 14.7 8.8 21.5 13.8 13.1 9.6 20.5 23.3 26.3 38.2 3 7.7 5.2 16.8 6.1 25 1 9.2.2 18.4.9 27.5.2 2.2.5 10.8 2.1 12.1 1.2 1 7.4-.8 9.1-.9 7.2-.5 14.5-.4 21.6-.9 15-.9 30.4.3 45.6-.5 7.6-.4 15-1.5 22.5-3.1 6.9-1.4 15.6-1.6 21.9-4.9 12.2-6.4 19.6-21.7 20.2-34.7.6-14.1-.4-29.4-3.3-43.4-1.5-7.3-2.9-14.3-4.7-21.6-2-8.1-4.3-16.2-6.6-24.3-3.9-13.8-9.9-26.7-12.7-40.9-1.6-7.8-3.8-15.9-6.2-23.5-.9-2.8-2.6-8.1-4.6-10.3-2.1-1.9-3.8-.6-7-.1zm-428.1 168.3c-3.2 2-5.4 6.6-5.3 10.3 0 5 4.1 2.8 8 3 2.4.1 11.1 2.5 12.6.2 1.8-2.8-3.7-1.5-4.4-3-1.4-3 5.1-4.3 4.3-6.9s-7.4 3.4-8.8.4c-1.3-2.8 5.3-5.3 4.3-7.2-.8-1.7-9.5 2.4-10.7 3.2zm13.8-25.8c0 2.1-.7 4.9-3.4 4.5-3.3-.5-4.3-6.8-4.6-9.2 2.1-7.9 8-.1 8 4.7zm95.1-67.4c-3.8.6-4.2 2.3-6 4.9-.8-.6-1.3-1.5-1.5-2.6-9 4-18.3 7.2-28 8.7-10.8 1.7-22.1-.9-33.1-1.9-1.4-.1-5.8-1.9-7-1.2-1 .6-.9 5.4-1 6.4-.5 6.4.7 12 1.6 18.3.3 1.7 0 5.3 1.3 6.7.9 1 2.6.6 3.7 2.1 3.2 4.1 4.1 12 5.6 17.2v.1-.1c.4-5.4 4.6-2.6 7.8-1.2 4.7 2.1 9.6 3.2 14.7 4 4.1.6 8.7 1.9 12.9 1.7 4.4-.2 9.8-2 14.1-3.2 4-1.2 6.3-3.7 9.1-7 2.7-3.2 5.6-5.3 8.5-8.1 7.3-7.1 5.3-21.8-1-28.7 5.1-2.6 13.9-8.4 6.2-14.2-2.1-1.5-5.5-2.3-7.9-1.9zm-64.3 58.8v.1zm24.9-12.2c2 .2 3.5 1.7 2.9 3.7-.7 2.6-5.2 4.3-7.5 4.4-6.1.8-.3-8.4 4.6-8.1zm-19.2-10.1c.2 1.5 0 2.5 1.3 3 1 .4 2.9-.4 4.2.1 1.2.5 1.3.8 2 2.1-.9 2.7-4.8 5.8-8 4.1-4-2-4.3-10-3.2-13.4 1.9-5.7 3.4 1.8 3.7 4.1zm352-30.5c-1.7.6-3.1 2.3-4.6 3.2-3.9 2.5-8.2 3.8-12 6.5 2.7 2.9 4.1 6.8 6.7 9.6 1.6 1.7 3.6 1.9 5.6 2.9 5.8 2.8 12.6 6.7 18.9 8-3.7-4.4-6.1-8.3-8.3-13.6-.8-1.9-1.8-3.9-2.4-5.9-.9-2.8-.4-5.8-1.1-8.6-.7-3 .4-3.2-2.8-2.1zm-362.8 16.6c1.7 2 3 6.4 3.1 9-1.8 8.5-7.7-3.2-7.5-7 .1-3.6 2-4.9 4.4-2zm16-4.7c2.9 2.5 3.8 6.6 4.1 9.9.3 3.7-.5 5.2-4.2 2.9-3.2-2.1-4.8-7.6-5-10.8.1-3.6 2.3-4.3 5.1-2zm57.9-10.5c.7 3.8-7.8 7.8-6.4 1.8-.3-3.8 5.6-5.8 6.4-1.8zm400.4-69.3c-6.4 7.8-14.2 12.8-22.2 18.7-7.1 5.2-13.9 10.9-21.5 15.2-2.3 1.3-6 2-6.4 4.4-.4 2.2 3.8 8.2 4.7 10.6 3.2 8.2 5.6 16.5 8.1 24.9 7.5-11.7 15.1-23.6 24.3-34.3 8.1-9.4 16.5-19.1 23.6-29.2-4.2-2.5-7.8-6.1-10.6-10.3zm46.9-18c-7.1 2.2-15.4 3.5-22.8 2.7-3.4-.3-6.7-.6-10.1-.8-2.5-.2-6.9-1.4-9 .6-2.1 1.9-1.8 5.6-.8 7.9.7 1.5 1.6 1.7 2.2 3 .2.4-.4 1.1.1 2 1.4 2.6 6.2 6.9 8.8 8.2 3.3 1.7 3.8-.3 6.4-2 5.4-3.6 14.6-3.6 21-4.3.1 1.4 18.6-5.2 20.4-6.4 3.4-2.3 7.4-12.7 3.8-15.8-4.3-3.8-15.7 3.6-20 4.9zm-124.2-49.6c-2.2 3.6-5.2 7.4-8.5 10.1-3.7 3-8.6 4.2-12.9 6.3-3.9 1.9-7.3 3.7-9.7 7.4-1.7 2.5-4.7 6-3.3 9.2 1.4 3.3 7.1 5.6 9.5 8.5 3.4 3.9 3.4 3.2 8.4 2.1 2.5-.5 4.9-.7 7.5-.6 1 0 4.6 1.1 5.5.4 1.2-.9 0-4.5.2-6 .2-2.2 1-4.4 1.7-6.4 2.9-8.1 8.4-13.4 13.7-19.6 5.7-6.6 13.6-11.2 19.2-17.8 3.1-3.7 1.7-6.2-2.6-7.9-2.2-.9-4.7-.9-6.9-1.6-2.3-.7-4.4-2.1-6.8-2.2-10.6-.5-10.9 11.6-15 18.1z" fill="#1c2540"/></g></svg>