<svg height="650.61216" viewBox="0 0 888 650.61216" width="888" xmlns="http://www.w3.org/2000/svg"><path d="m467.054 645.101h-7.425l2.475-145.191h2.475z" fill="#e6e6e6"/><path d="m628.91087 533.06384 11.96486-18.49113a277.22087 277.22087 0 0 0 -12.2752-28.735l-7.73686 6.249 6.12606-9.46746c-5.83819-11.49226-10.432-18.733-10.432-18.733s-23.99591 37.81367-32.0128 77.84976l15.35368 23.72848-16.9972-13.72856a112.157 112.157 0 0 0 -.93251 14.06385c0 47.4161 15.48592 85.85444 34.58883 85.85444s34.58884-38.43834 34.58884-85.85444c0-14.69945-3.32549-30.07832-7.91284-44.30428z" fill="#e6e6e6" transform="translate(-156 -124.69392)"/><path d="m279.016 645.101h-7.424l2.475-145.191h2.474z" fill="#e6e6e6"/><path d="m443.65709 533.06384 11.96491-18.49113a277.221 277.221 0 0 0 -12.27519-28.735l-7.73686 6.249 6.12606-9.46746c-5.83819-11.49226-10.432-18.733-10.432-18.733s-23.99592 37.81367-32.0128 77.84976l15.35368 23.72848-16.9972-13.72856a112.157 112.157 0 0 0 -.93252 14.06385c0 47.4161 15.48593 85.85444 34.58884 85.85444s34.58883-38.43834 34.58883-85.85444c0-14.69945-3.32549-30.07832-7.91283-44.30428z" fill="#e6e6e6" transform="translate(-156 -124.69392)"/><path d="m371.285 644.652h-14.849l4.95-298.63h4.95z" fill="#e6e6e6"/><path d="m540.19374 282.43224 24.67038-38.12691a571.604 571.604 0 0 0 -25.31026-59.24885l-15.95265 12.88475 12.63135-19.521c-12.03779-23.69593-21.50982-38.62564-21.50982-38.62564s-49.47724 77.96811-66.00727 160.51863l31.65779 48.92581-35.04657-28.307a231.25563 231.25563 0 0 0 -1.92276 28.9983c0 97.76736 31.93048 177.02347 71.31881 177.02347s71.31881-79.25611 71.31881-177.02347c0-30.30885-6.85684-62.01857-16.3155-91.35111z" fill="#e6e6e6" transform="translate(-156 -124.69392)"/><circle cx="299.19458" cy="68.47053" fill="#e6e6e6" r="68.47053"/><path d="m0 644.24023h888v2.24072h-888z" fill="#3f3d56"/><path d="m955.23238 417.116a2.82152 2.82152 0 0 0 2.82152-2.82153v-30.09628a2.79442 2.79442 0 0 0 -3.762-2.64874v-34.031a9.40506 9.40506 0 0 0 -9.40507-9.40508h-307.54597a9.40506 9.40506 0 0 0 -9.40507 9.40508v412.88271a9.4051 9.4051 0 0 0 9.40507 9.40508h307.54594a9.4051 9.4051 0 0 0 9.40507-9.40508v-301.13516a2.79444 2.79444 0 0 0 3.762-2.64874v-30.09626a2.79444 2.79444 0 0 0 -3.762-2.64874v-6.92912a2.79526 2.79526 0 0 0 .94051.17286z" fill="#3f3d56" transform="translate(-156 -124.69392)"/><path d="m926.07666 356.45321a9.40508 9.40508 0 0 1 9.40509 9.40509v376.203a9.4051 9.4051 0 0 1 -9.40509 9.405h-269.92566a9.40511 9.40511 0 0 1 -9.40506-9.405v-376.203a9.40509 9.40509 0 0 1 9.40506-9.40509z" fill="#fff" transform="translate(-156 -124.69392)"/><circle cx="635.11383" cy="222.82448" fill="#fff" r="3.76203"/><path d="m515.63891 281.11007h231.16914v22.97312h-231.16914z" fill="#6c63ff"/><g fill="#e6e6e6"><path d="m515.63891 335.22412h231.16914v8.70119h-231.16914z"/><path d="m515.63891 361.78229h231.16914v8.70119h-231.16914z"/><path d="m515.63891 388.67686h119.44476v8.70119h-119.44476z"/><path d="m515.63891 416.0488h231.16914v8.70119h-231.16914z"/><path d="m515.63891 443.42074h231.16914v8.70119h-231.16914z"/><path d="m515.63891 470.79268h115.44476v8.70119h-115.44476z"/><path d="m515.63891 498.16461h231.16914v8.70119h-231.16914z"/><path d="m515.63891 525.53655h231.16914v8.70119h-231.16914z"/></g><path d="m674.08367 559.11007h73v24h-73z" fill="#6c63ff"/><path d="m423.9461 490.77611h-1.64458v-54.77538a31.83907 31.83907 0 0 0 -31.83907-31.83907h-116.67722a31.83912 31.83912 0 0 0 -31.83913 31.83913v301.96631a31.83913 31.83913 0 0 0 31.83913 31.83914h116.67722a31.83907 31.83907 0 0 0 31.83907-31.83907v-208.26937h1.64458z" fill="#3f3d56" transform="translate(-156 -124.69392)"/><path d="m415.175 433.81689v303.44011a23.77813 23.77813 0 0 1 -23.77813 23.77813h-116.90156a23.77813 23.77813 0 0 1 -23.77813-23.77813v-303.44011a21.43234 21.43234 0 0 1 21.43234-21.43234h16.50482a11.60266 11.60266 0 0 0 .50568 9.7111 11.34186 11.34186 0 0 0 9.278 5.6383h68.01342a11.34117 11.34117 0 0 0 9.27827-5.639 11.60375 11.60375 0 0 0 .50511-9.71037h17.50788a21.43234 21.43234 0 0 1 21.4323 21.43231z" fill="#fff" transform="translate(-156 -124.69392)"/><path d="m550.63194 351.45782s-12.40214-4.42933-20.37494 13.288-20.37494 37.20641-20.37494 37.20641l7.08694 1.77177s1.77174-12.40214 6.20107-14.17387l-1.77173 15.9456s53.152 18.60321 77.07043-1.77173l-.88586-6.20107s3.54346.88587 3.54346 6.20107l2.65761-2.6576s-2.65761-5.31521-10.63041-12.40214c-5.233-4.65156-7.03129-13.50109-7.64926-19.034a23.03336 23.03336 0 0 0 -5.3029-12.54328c-5.29835-6.14045-14.95266-12.66688-29.56947-5.62916z" fill="#2f2e41" transform="translate(-156 -124.69392)"/><path d="m321.794 378.753 11.597 14.76 7.381-8.435-6.326-10.543z" fill="#fbbebe"/><path d="m317.577 605.429-4.217 22.14 10.543 5.272 7.38-5.272v-22.14z" fill="#fbbebe"/><path d="m391.378 605.429 4.218 22.14-10.543 5.272-7.381-5.272v-22.14z" fill="#fbbebe"/><path d="m348.152 406.165-14.761 105.43-21.086 95.943 25.304 3.163 20.032-89.617 25.303-75.91-3.163 90.671-5.271 74.856h18.977l13.706-101.214 15.156-75.251-.396-28.071z" fill="#2f2e41"/><path d="m476.73977 750.15475s-5.27154-6.32585-8.43447-3.16293-10.54309 15.81464-10.54309 15.81464-16.86894 9.48877-3.16292 11.59739 17.92324 0 17.92324-1.05431 2.10862-4.21723 2.10862-4.21723l5.27155 1.05431 7.38016-2.10862s3.16292-19.42585 0-18.67455-9.48878 3.91423-10.54309.7513z" fill="#2f2e41" transform="translate(-156 -124.69392)"/><path d="m544.21553 750.15475s5.27154-6.32585 8.43446-3.16293 10.54309 15.81464 10.54309 15.81464 16.86894 9.48877 3.16293 11.59739-17.92325 0-17.92325-1.05431-2.10862-4.21723-2.10862-4.21723l-5.27154 1.05431-7.38016-2.10862s-3.16293-19.42585 0-18.67455 9.48878 3.91423 10.54309.7513z" fill="#2f2e41" transform="translate(-156 -124.69392)"/><circle cx="398.23146" cy="260.14287" fill="#fbbebe" r="21.08617"/><path d="m568.46462 398.01565s-2.10861 17.92325-1.0543 22.14048 3.16292 10.54309 3.16292 10.54309l-33.73788-6.32585s9.48878-20.03187 7.38017-23.19479 24.24909-3.16293 24.24909-3.16293z" fill="#fbbebe" transform="translate(-156 -124.69392)"/><path d="m571.62755 423.31906-34.79219-7.38016-20.03186 122.29981a45.67558 45.67558 0 0 1 27.412 1.0543c14.76032 5.27155 34.79218 0 34.79218 0l-4.21723-114.91964z" fill="#6c63ff" transform="translate(-156 -124.69392)"/><path d="m543.92175 406.25262-12.35793 6.52338-15.81463 3.16293-16.86894 40.06373 2.10862 28.46633s-17.92325 32.68357-20.03187 50.60682c0 0 2.10862 27.412 36.90081 26.35772l23.19479-64.31283s9.48878-48.4982 0-62.20421c0-.00003 6.79262-25.69844 2.86915-28.66387z" fill="#2f2e41" transform="translate(-156 -124.69392)"/><path d="m522.075 415.9389-3.41389-.58239-2.912.58239s-7.38016 1.05431-15.81463 8.43447-36.9008 30.575-39.00942 36.9008-1.05431 16.86894 2.10862 23.19479 9.48877 14.76033 9.48877 14.76033l3.16293 7.38016 17.92325-5.27155s-11.5974-22.14048-10.54309-31.62926l21.08626-16.86894z" fill="#2f2e41" transform="translate(-156 -124.69392)"/><path d="m567.29714 411.01913 15.92786 19.68009 8.43447 10.54309-10.54314 35.84649-5.27154 30.575s12.6517 48.4982 2.10861 63.25853c0 0-6.32585 7.38016-8.43447-1.05431s-2.10861-48.4982-2.10861-48.4982-8.43447-52.71544-4.21724-66.42145-.22636-41.46886 4.10406-43.92924z" fill="#2f2e41" transform="translate(-156 -124.69392)"/><path d="m582.17064 563.54211v10.54309s-2.10862 34.79219 8.43447 30.575 3.16292-30.575 3.16292-30.575l-1.05431-11.59739z" fill="#fbbebe" transform="translate(-156 -124.69392)"/><path d="m530.72627 385.961c8.0189-5.8034 14.51-12.48772 18.80392-20.43905 0 0 14.71612 16.35124 23.70931 17.1688s.81756-19.62149.81756-19.62149l-16.35124-4.08781-15.53368 1.63513-12.26343 8.17562z" fill="#2f2e41" transform="translate(-156 -124.69392)"/><path d="m427.225 313.385 8.434 3.163 1.055 10.543 4.217 64.313-2.109 48.499-15.814 1.054-5.272-53.77-2.108-59.041z" fill="#2f2e41"/><path d="m112.63891 373.68882h128.15439v12.73572h-128.15439z" fill="#6c63ff"/><path d="m112.63891 403.6883h128.15439v4.82372h-128.15439z" fill="#e6e6e6"/><path d="m112.63891 418.41148h128.15439v4.82372h-128.15439z" fill="#e6e6e6"/><path d="m112.63891 433.32116h66.21719v4.82372h-66.21719z" fill="#e6e6e6"/><path d="m112.63891 448.49548h128.15439v4.82372h-128.15439z" fill="#e6e6e6"/><path d="m112.63891 463.6698h128.15439v4.82372h-128.15439z" fill="#e6e6e6"/><path d="m112.63891 478.84412h63.99969v4.82372h-63.99969z" fill="#e6e6e6"/><path d="m112.63891 494.01843h128.15439v4.82372h-128.15439z" fill="#e6e6e6"/><path d="m112.63891 509.19275h128.15439v4.82372h-128.15439z" fill="#e6e6e6"/><path d="m200.47672 527.80507h40.46937v13.305h-40.46937z" fill="#6c63ff"/></svg>