<svg height="606.99923" viewBox="0 0 837.49963 606.99923" width="837.49963" xmlns="http://www.w3.org/2000/svg"><path d="m691.25018 146.50039h-501a9.01357 9.01357 0 0 0 -9 9v296a9.01357 9.01357 0 0 0 9 9h501a9.01357 9.01357 0 0 0 9-9v-296a9.01357 9.01357 0 0 0 -9-9zm7 305a7.00778 7.00778 0 0 1 -7 7h-501a7.00779 7.00779 0 0 1 -7-7v-296a7.00778 7.00778 0 0 1 7-7h501a7.00778 7.00778 0 0 1 7 7z" fill="#3f3d56" transform="translate(-181.25018 -146.50039)"/><path d="m1 34h517v2h-517z" fill="#3f3d56"/><circle cx="18" cy="17.5" fill="#ccc" r="5"/><circle cx="33" cy="17.5" fill="#ccc" r="5"/><circle cx="48" cy="17.5" fill="#ccc" r="5"/><path d="m561.75018 580.00039h-242a8.50958 8.50958 0 0 1 -8.5-8.5v-271a8.50958 8.50958 0 0 1 8.5-8.5h242a8.5095 8.5095 0 0 1 8.5 8.5v271a8.50951 8.50951 0 0 1 -8.5 8.5z" fill="#6c63ff" transform="translate(-181.25018 -146.50039)"/><path d="m511.75018 431.00039h-142a12.5 12.5 0 0 1 0-25h142a12.5 12.5 0 0 1 0 25z" fill="#fff" transform="translate(-181.25018 -146.50039)"/><path d="m511.75018 477.50039h-142a12.5 12.5 0 0 1 0-25h142a12.5 12.5 0 0 1 0 25z" fill="#fff" transform="translate(-181.25018 -146.50039)"/><path d="m511.75018 524.50039h-142a12.5 12.5 0 1 1 0-25h142a12.5 12.5 0 0 1 0 25z" fill="#fff" transform="translate(-181.25018 -146.50039)"/><path d="m468.25018 369.50039h-55a12.5 12.5 0 0 1 0-25h55a12.5 12.5 0 0 1 0 25z" fill="#fff" transform="translate(-181.25018 -146.50039)"/><rect fill="#ccc" height="21" rx="10.49999" width="433" x="43" y="71"/><path d="m920.86746 622.52325a9.69085 9.69085 0 0 0 3.46541-14.45l22.582-124.97534-21.07284-.27771-15.6819 123.58442a9.74338 9.74338 0 0 0 10.70738 16.11866z" fill="#a0616a" transform="translate(-181.25018 -146.50039)"/><path d="m674.215 470.097-8 38 1 85h15l7-83 11-35z" fill="#a0616a"/><path d="m724.215 470.097-8 38 1 85h15l7-83 11-35z" fill="#a0616a"/><path d="m843.21636 737.42459h23.64388a0 0 0 0 1 0 0v14.88687a0 0 0 0 1 0 0h-38.53074a0 0 0 0 1 0 0 14.88685 14.88685 0 0 1 14.88686-14.88687z" fill="#2f2e41" transform="matrix(.99897139 .04534503 -.04534503 .99897139 -146.60221 -184.16848)"/><path d="m893.21636 737.42459h23.64388a0 0 0 0 1 0 0v14.88687a0 0 0 0 1 0 0h-38.53074a0 0 0 0 1 0 0 14.88685 14.88685 0 0 1 14.88686-14.88687z" fill="#2f2e41" transform="matrix(.99897139 .04534503 -.04534503 .99897139 -146.55078 -186.43573)"/><circle cx="710.71476" cy="259.18017" fill="#a0616a" r="24.56103"/><g transform="translate(-181.25018 -146.50039)"><path d="m946.24285 466.42958c-8.12685-12.75218-35.16614-44.52714-75.2779-18.3317 0 0 9.5 79.5-13.5 122.5 0 0 53 16 82 1 0 0-10-67 0-80a53.90371 53.90371 0 0 0 8.01289-13.72626 12.891 12.891 0 0 0 -1.23499-11.44204z" fill="#ccc"/><path d="m936.465 465.59788 9.81358 4.089a3.7184 3.7184 0 0 1 2.285 3.27758l.9014 21.63343-22-2z" fill="#ccc"/><path d="m861.465 568.59788s-22 41-18 79l31 5 22-53-5 54 32 1s21-78 14-85z" fill="#2f2e41"/><path d="m855.86746 612.52325a9.69085 9.69085 0 0 0 3.46541-14.45l22.582-124.97534-21.07284-.27771-15.6819 123.58442a9.74338 9.74338 0 0 0 10.70738 16.11866z" fill="#a0616a"/><path d="m880.465 448.59788-9-1s-8-2-11 9-3 33-3 33l28-1z" fill="#ccc"/><path d="m895.89936 417.505c.882-3.06179.62715-7.205-2.34125-8.36308-1.54665-.60341-3.27233-.12748-4.92388.04165a13.14141 13.14141 0 0 1 -9.08062-2.49947c-3.0705-2.28258-4.96707-5.77162-6.768-9.14722l-2.724-5.10565a22.18019 22.18019 0 0 1 -1.5455-3.327c-1.51566-4.50732.13007-9.72558 3.49911-13.08158a18.97565 18.97565 0 0 1 12.96279-5.08228 34.98373 34.98373 0 0 1 13.85112 2.96738 61.26067 61.26067 0 0 1 20.6533 13.875c3.832 3.9201 7.32031 9.02692 6.51966 14.45-.62323 4.22138-3.70027 7.60171-6.63486 10.69956l-10.6447 11.2369c-1.88515 1.99-3.89962 4.06118-6.53184 4.82631s-6.02319-.35883-6.741-3.00434c-.00004.00004-.43236-5.42443.44967-8.48618z" fill="#2f2e41"/><path d="m1018.74982 752.49961a1.00308 1.00308 0 0 1 -1 1h-288a1 1 0 0 1 0-2h288a1.00308 1.00308 0 0 1 1 1z" fill="#3f3d56"/></g></svg>