<svg height="421.44411" viewBox="0 0 677 421.44411" width="677" xmlns="http://www.w3.org/2000/svg"><path d="m360.60136 612.13066a24.21459 24.21459 0 0 0 23.38269-4.11877c8.18977-6.87441 10.758-18.196 12.8467-28.68191l6.17973-31.01657-12.9377 8.90837c-9.30465 6.40641-18.81826 13.01866-25.26011 22.29785s-9.25223 21.94707-4.07792 31.988" fill="#e5e5e5" transform="translate(-261.5 -239.27794)"/><path d="m362.59907 651.84122c-1.62839-11.86368-3.30382-23.88078-2.15884-35.87167 1.01467-10.64932 4.26373-21.0488 10.87831-29.57938a49.20628 49.20628 0 0 1 12.62466-11.44039c1.26215-.79647 2.42409 1.20354 1.16733 1.997a46.77949 46.77949 0 0 0 -18.50446 22.32562c-4.02858 10.24607-4.67545 21.41582-3.98154 32.3003.41944 6.58218 1.31074 13.1212 2.20588 19.65251a1.19817 1.19817 0 0 1 -.808 1.42251 1.16348 1.16348 0 0 1 -1.42253-.808z" fill="#f1f1f1" transform="translate(-261.5 -239.27794)"/><path d="m374.3201 632.80477a17.82511 17.82511 0 0 0 15.53141 8.01862c7.8644-.37318 14.41806-5.85973 20.31713-11.07027l17.452-15.4088-11.54987-.5528c-8.3062-.39784-16.82672-.771-24.73814 1.79338s-15.20757 8.72638-16.654 16.9154" fill="#e5e5e5" transform="translate(-261.5 -239.27794)"/><path d="m357.99609 658.66091c7.83972-13.87142 16.93234-29.28794 33.1808-34.21552a37.02588 37.02588 0 0 1 13.95545-1.441c1.48189.128 1.11179 2.41174-.367 2.28453a34.39833 34.39833 0 0 0 -22.27164 5.89215c-6.27994 4.27454-11.16975 10.21756-15.30781 16.51907-2.53511 3.86051-4.80577 7.88445-7.07642 11.903-.72556 1.28447-2.84739.35694-2.11338-.94223z" fill="#f1f1f1" transform="translate(-261.5 -239.27794)"/><path d="m275.063 143.134v-13.332l81.6-41.068 54.4 139.4-83.3 22.1z" fill="#3f3d56"/><path d="m412.563 231.655-56.652-135.337-4.314 2.029-1.686-4.029-71.348 38.115.082.217-.582.274 5.998 14.094 39.934 105.932 4.596-1.297 1.404 3.297z" fill="#6c63ff"/><path d="m329.995 253.95 82.568-23.295-56.653-135.337-77.847 36.606z" opacity=".1"/><path d="m636.43969 453.57862a6.92355 6.92355 0 0 1 -3.92136-5.87326l-.76936-14.5645a6.92457 6.92457 0 0 1 6.54277-7.27282l121.392-6.4128a6.92457 6.92457 0 0 1 7.27271 6.54244l.76936 14.565a6.92473 6.92473 0 0 1 -6.54255 7.27239l-121.39223 6.41324a6.876 6.876 0 0 1 -3.35134-.66969z" fill="#6c63ff" transform="translate(-261.5 -239.27794)"/><path d="m720.122 453.864a6.93791 6.93791 0 0 1 -3.91769-6.29177l-.14388-27.42231a6.91662 6.91662 0 0 1 6.97463-6.866l55.37914 4.8821c1.46594.00888 3.31643 2.28 4.80413 4.10312.46657.57237.86957 1.06651 1.16425 1.36561.12913.13116.25209.26739.36884.40651a6.90522 6.90522 0 0 1 1.61625 4.50249l-.12123 14.58387a6.92594 6.92594 0 0 1 -6.97494 6.85995l-56.16442 4.558a6.97479 6.97479 0 0 1 -2.98508-.68157z" fill="#2f2e41" transform="translate(-261.5 -239.27794)"/><circle cx="503.56685" cy="85.61051" fill="#6c63ff" r="52.88731"/><path d="m754.75721 660.72206h-14.585a6.92513 6.92513 0 0 1 -6.91735-6.91736v-123.53776a6.92512 6.92512 0 0 1 6.91735-6.91736h14.585a6.92512 6.92512 0 0 1 6.91736 6.91736v123.53776a6.92513 6.92513 0 0 1 -6.91736 6.91736z" fill="#6c63ff" transform="translate(-261.5 -239.27794)"/><path d="m793.22874 660.72206h-14.585a6.92514 6.92514 0 0 1 -6.91736-6.91736v-123.53776a6.92513 6.92513 0 0 1 6.91736-6.91736h14.585a6.92512 6.92512 0 0 1 6.91736 6.91736v123.53776a6.92513 6.92513 0 0 1 -6.91736 6.91736z" fill="#6c63ff" transform="translate(-261.5 -239.27794)"/><g fill="#2f2e41"><path d="m735.68821 344.49026-.055-1.97639c3.67678-.10229 6.91833-.33293 9.35407-2.11245a6.07541 6.07541 0 0 0 2.35323-4.47486 3.47285 3.47285 0 0 0 -1.13922-2.86036c-1.61691-1.36552-4.21864-.92354-6.11493-.054l-1.63525.74983 3.13588-22.91665 1.958.26828-2.66735 19.49367c2.57664-.75755 4.96413-.43137 6.59938.9496a5.40639 5.40639 0 0 1 1.83839 4.43915 8.03666 8.03666 0 0 1 -3.16242 6.00154c-3.12956 2.28709-7.19669 2.40096-10.46478 2.49264z" transform="translate(-261.5 -239.27794)"/><path d="m491.72865 73.51677h10.64432v1.97639h-10.64432z"/><path d="m458.13006 73.51677h10.64432v1.97639h-10.64432z"/><path d="m825.32047 501.01789-48.81475-97.34312h.68838a6.43049 6.43049 0 0 0 6.42323-6.42323v-1.97635a6.43056 6.43056 0 0 0 -6.42323-6.42331h-21.74022a6.43056 6.43056 0 0 0 -6.42324 6.42331v1.97635a6.40975 6.40975 0 0 0 5.68517 6.34863l-48.95534 97.471a30.40462 30.40462 0 0 0 27.17028 44.051h65.16794a30.45288 30.45288 0 0 0 27.22178-44.10428z" transform="translate(-261.5 -239.27794)"/><path d="m757.10671 290.73358c-12.76012 8.75667-32.35719 3.9289-38.14032-10.86562a27.26564 27.26564 0 0 1 1.12493-22.39952c4.00182-7.51782 11.75377-12.02973 19.909-13.72035 10.9416-2.26824 22.25465.7769 32.25618 5.19974a1.98768 1.98768 0 0 0 2.25585-.29107c9.55315-7.61621 23.43318-4.30936 33.22825 1.01441a73.71409 73.71409 0 0 1 26.07958 24.6716 77.03153 77.03153 0 0 1 12.13812 33.825 77.209 77.209 0 0 1 -30.133 68.57936c-1.896 1.41851-.04212 4.65209 1.87909 3.21475 21.0916-15.77951 33.73479-42.11152 32.239-68.50271-1.45863-25.73606-16.16883-50.53246-38.305-63.84691-11.74926-7.06695-28.12411-10.86367-39.75869-1.58805l2.25584-.29107c-10.00351-4.42372-20.96367-7.54639-31.9878-6.09571-9.36412 1.23223-18.56443 5.7225-23.9336 13.71967a30.63125 30.63125 0 0 0 -3.66632 25.03 27.80971 27.80971 0 0 0 16.72685 18.343c8.9504 3.55189 19.71869 2.70305 27.71105-2.78174 1.9633-1.34731.10334-4.57519-1.87909-3.21474z" transform="translate(-261.5 -239.27794)"/></g><path d="m429.563 249.655-56.652-135.337-4.667 1.187-1.333-3.187-86.348 25.115.129.331-.629.16 6.074 13.804 39.858 102.222 4.978-.321 1.022 2.321z" fill="#6c63ff"/><path d="m331.163 270.634 99.4-21.201-55.2-131.799-100.3 25.5z" fill="#3f3d56"/><circle cx="341.56299" cy="167.43281" fill="#fff" r="19"/><path d="m756.49332 431.09717a6.95028 6.95028 0 0 1 2.10072.43108 6.86932 6.86932 0 0 1 3.88 3.60052l6.07361 13.26a6.92411 6.92411 0 0 1 -3.40836 9.16932l-110.51956 50.6221a6.92484 6.92484 0 0 1 -9.16955-3.40861l-6.07361-13.26a6.9241 6.9241 0 0 1 3.40836-9.16931l110.51959-50.62207a6.87318 6.87318 0 0 1 3.1888-.62303z" fill="#6c63ff" transform="translate(-261.5 -239.27794)"/><path d="m758.58494 428.05526a6.9376 6.9376 0 0 1 6.0124 4.10408l5.93 13.32483a6.90427 6.90427 0 0 1 .31449 4.77306c-.05157.17391-.10991.348-.17613.52025-.15058.39149-.32309 1.00514-.52256 1.71558-.63633 2.26578-1.42814 5.08562-2.80308 5.69739l-48.76216 26.53729a6.91378 6.91378 0 0 1 -9.16722-3.48965l-10.81491-25.21423a6.924 6.924 0 0 1 3.50949-9.12645l53.40054-18.2614a6.77524 6.77524 0 0 1 3.07914-.58075z" fill="#2f2e41" transform="translate(-261.5 -239.27794)"/><path d="m937.5 660.71075h-381a1 1 0 0 1 0-2h381a1 1 0 0 1 0 2z" fill="#3f3d56" transform="translate(-261.5 -239.27794)"/><path d="m452.5 660.71075h-190a1 1 0 0 1 0-2h190a1 1 0 0 1 0 2z" fill="#3f3d56" transform="translate(-261.5 -239.27794)"/></svg>