<svg height="544" viewBox="0 0 737.38976 544" width="737.38976" xmlns="http://www.w3.org/2000/svg"><path d="m504.621 513.18165-152.64589 32.17507a17.01916 17.01916 0 0 1 -20.14075-13.12822l-26.19381-124.26941a17.01916 17.01916 0 0 1 13.12823-20.14074l152.64588-32.17507a17.01915 17.01915 0 0 1 20.14074 13.12822l26.19381 124.26941a17.01916 17.01916 0 0 1 -13.12821 20.14074zm-185.4397-123.4063a15.017 15.017 0 0 0 -11.58373 17.77124l26.19379 124.26941a15.017 15.017 0 0 0 17.77124 11.58373l152.64588-32.17508a15.017 15.017 0 0 0 11.58374-17.77124l-26.19381-124.26941a15.017 15.017 0 0 0 -17.77125-11.58373z" fill="#3f3d56" transform="translate(-231.30512 -178)"/><path d="m461.93038 396.61842-77.03838 16.23834a2.73089 2.73089 0 0 1 -3.22932-1.86307 2.63064 2.63064 0 0 1 1.99859-3.25411l78.42034-16.52958c3.06195 1.72557 2.09419 4.93517-.15219 5.40867z" fill="#ccc" transform="translate(-231.30512 -178)"/><path d="m464.77869 410.13147-77.03838 16.23835a2.73089 2.73089 0 0 1 -3.22931-1.86308 2.63063 2.63063 0 0 1 1.99859-3.2541l78.42034-16.52964c3.06195 1.72558 2.09418 4.93518-.1522 5.40867z" fill="#ccc" transform="translate(-231.30512 -178)"/><path d="m372.70815 437.57411-23.51136 4.95578a2.962 2.962 0 0 1 -3.50569-2.28509l-5.84823-27.74533a2.962 2.962 0 0 1 2.28509-3.50569l23.51137-4.95578a2.963 2.963 0 0 1 3.50569 2.28509l5.84823 27.74536a2.962 2.962 0 0 1 -2.28509 3.50569z" fill="#ccc" transform="translate(-231.30512 -178)"/><path d="m470.38655 437.84676-117.57469 24.78268a2.73086 2.73086 0 0 1 -3.22929-1.86306 2.63063 2.63063 0 0 1 1.99859-3.25412l118.95758-25.07417c3.06195 1.72557 2.09419 4.93517-.15219 5.40867z" fill="#ccc" transform="translate(-231.30512 -178)"/><path d="m473.2357 451.36376-117.5747 24.78269a2.73087 2.73087 0 0 1 -3.22929-1.86306 2.63063 2.63063 0 0 1 1.99858-3.25412l118.95759-25.07418c3.06195 1.72558 2.09418 4.93518-.15219 5.40867z" fill="#ccc" transform="translate(-231.30512 -178)"/><path d="m476.083 464.87193-117.57471 24.78269a2.73088 2.73088 0 0 1 -3.22929-1.86307 2.63062 2.63062 0 0 1 1.99859-3.25411l118.95759-25.07418c3.06195 1.72558 2.09418 4.93517-.1522 5.40867z" fill="#ccc" transform="translate(-231.30512 -178)"/><path d="m478.93192 478.38793-117.57469 24.78269a2.73087 2.73087 0 0 1 -3.22929-1.86307 2.63061 2.63061 0 0 1 1.99858-3.25411l118.95759-25.07418c3.06195 1.72558 2.09418 4.93517-.15219 5.40867z" fill="#ccc" transform="translate(-231.30512 -178)"/><path d="m481.77942 491.89711-117.57469 24.78269a2.73087 2.73087 0 0 1 -3.22929-1.86307 2.6306 2.6306 0 0 1 1.99858-3.25411l118.95759-25.07418c3.062 1.72558 2.09418 4.93518-.15219 5.40867z" fill="#ccc" transform="translate(-231.30512 -178)"/><path d="m500.534 430.03021a10.52747 10.52747 0 0 0 -.68327 1.51012l-48.13337 11.94434-8.37345-8.66256-14.725 10.92831 13.33321 16.77594a8 8 0 0 0 9.289 2.428l52.22933-21.34222a10.49709 10.49709 0 1 0 -2.93641-13.5819z" fill="#ffb8b8" transform="translate(-231.30512 -178)"/><path d="m336.23731 536.32254a10.7427 10.7427 0 0 0 6.37825-15.18767l33.12422-92.06728-23.00366-4.07668-25.32663 91.781a10.8009 10.8009 0 0 0 8.82782 19.55061z" fill="#ffb8b8" transform="translate(-231.30512 -178)"/><path d="m371.533 445.41054-22.71252-8.71684a4.81687 4.81687 0 0 1 -2.46974-6.863l11.915-21.1257a13.37737 13.37737 0 0 1 24.95 9.65954l-5.25553 23.59756a4.81687 4.81687 0 0 1 -6.42721 3.44849z" fill="#6c63ff" transform="translate(-231.30512 -178)"/><path d="m191.493 531.175h12.259l5.833-47.288-18.094.001z" fill="#ffb8b8"/><path d="m419.67063 705.17279 24.1438-.001h.001a15.38605 15.38605 0 0 1 15.38645 15.38621v.5l-39.53051.00146z" fill="#2f2e41" transform="translate(-231.30512 -178)"/><path d="m122.493 531.175h12.259l5.833-47.288-18.094.001z" fill="#ffb8b8"/><path d="m350.67063 705.17279 24.1438-.001h.001a15.38605 15.38605 0 0 1 15.38645 15.38621v.5l-39.53051.00146z" fill="#2f2e41" transform="translate(-231.30512 -178)"/><path d="m366.6504 690.14248h-15.51465a4.50042 4.50042 0 0 1 -4.49487-4.71387l7.36938-158.332.46436-.0127 74.91919-1.95312 14.6604 158.42285a4.50022 4.50022 0 0 1 -4.12085 4.91113l-17.42627 1.39356a4.50225 4.50225 0 0 1 -4.76709-3.582l-22.29028-112.77643a1.45375 1.45375 0 0 0 -1.469-1.19922h-.0061a1.45449 1.45449 0 0 0 -1.46631 1.21094l-21.44263 113a4.50951 4.50951 0 0 1 -4.41528 3.63086z" fill="#2f2e41" transform="translate(-231.30512 -178)"/><circle cx="163.765" cy="183.32358" fill="#ffb8b8" r="24.56103"/><path d="m386.83448 545.65127c-11.7063 0-23.73022-3.07715-33.698-12.17481a4.55187 4.55187 0 0 1 -1.46949-3.84961c1.0669-9.58594 6.24219-59.081 3.32764-92.14355a40.01955 40.01955 0 0 1 12.95557-33.30469 39.59814 39.59814 0 0 1 33.96215-9.834h.00025c.30591.05468.61157.1123.91772.17089 19.66358 3.80567 33.32593 22.00391 31.78 42.33106-2.25586 29.66016-4.27807 69.7793-1.10278 92.46777a4.49262 4.49262 0 0 1 -2.4148 4.63672c-7.22481 3.65041-25.32613 11.70022-44.25826 11.70022z" fill="#6c63ff" transform="translate(-231.30512 -178)"/><path d="m418.88372 447.17782a4.81168 4.81168 0 0 1 -2.10947-3.41136l-2.99231-23.98982a13.37737 13.37737 0 0 1 25.75414-7.24809l9.85629 22.16112a4.81688 4.81688 0 0 1 -3.10993 6.59769l-23.43727 6.522a4.81146 4.81146 0 0 1 -3.96145-.63154z" fill="#6c63ff" transform="translate(-231.30512 -178)"/><path d="m386.496 385.53781a17.59793 17.59793 0 0 1 -6.79721-1.2298c-.95139-.36664-1.939-.668-2.88862-1.03489-8.38662-3.24017-13.91121-12.17188-14.10907-21.16048s4.457-17.71287 11.36912-23.46238 15.865-8.70134 24.82986-9.38394c9.65661-.73527 20.53026 1.7136 25.92627 9.7556 1.43633 2.14065 2.44084 4.73783 1.58976 7.32246a4.68564 4.68564 0 0 1 -1.32028 2.028c-2.40979 2.144-4.81223.53191-7.2688.38948-3.37653-.19576-6.40925 2.53734-7.49925 5.73908s-.61019 6.7266.26991 9.99228a24.96206 24.96206 0 0 1 1.25825 6.07589 6.1083 6.1083 0 0 1 -2.53094 5.37854c-2.10991 1.27536-4.88078.53724-6.99193-.73607s-3.93535-3.04373-6.21577-3.98072-5.3442-.72915-6.6715 1.34848a7.379 7.379 0 0 0 -.84344 2.43522c-1.18992 5.42125-.91644 5.102-2.10636 10.52322z" fill="#2f2e41" transform="translate(-231.30512 -178)"/><path d="m726.69488 352h-156a17.01917 17.01917 0 0 1 -17-17v-127a17.01917 17.01917 0 0 1 17-17h156a17.01917 17.01917 0 0 1 17 17v127a17.01917 17.01917 0 0 1 -17 17zm-156-159a15.017 15.017 0 0 0 -15 15v127a15.017 15.017 0 0 0 15 15h156a15.017 15.017 0 0 0 15-15v-127a15.017 15.017 0 0 0 -15-15z" fill="#3f3d56" transform="translate(-231.30512 -178)"/><path d="m708.96338 229.138h-78.73117a2.73088 2.73088 0 0 1 -2.77562-2.48906 2.63064 2.63064 0 0 1 2.62678-2.77193h80.14349c2.64021 2.32 1.03128 5.261-1.26446 5.261z" fill="#ccc" transform="translate(-231.30512 -178)"/><path d="m708.96338 242.948h-78.73117a2.73088 2.73088 0 0 1 -2.77562-2.48906 2.63064 2.63064 0 0 1 2.62678-2.77193h80.14349c2.64021 2.32 1.03128 5.261-1.26446 5.261z" fill="#ccc" transform="translate(-231.30512 -178)"/><path d="m613.21237 250.811h-24.028a2.962 2.962 0 0 1 -2.959-2.959v-28.355a2.962 2.962 0 0 1 2.959-2.959h24.028a2.963 2.963 0 0 1 2.959 2.959v28.355a2.962 2.962 0 0 1 -2.959 2.959z" fill="#3f3d56" transform="translate(-231.30512 -178)"/><path d="m708.73437 271.224h-120.15818a2.73087 2.73087 0 0 1 -2.7756-2.489 2.63061 2.63061 0 0 1 2.62677-2.77194h121.57147c2.64022 2.32 1.03128 5.261-1.26446 5.261z" fill="#ccc" transform="translate(-231.30512 -178)"/><path d="m708.73437 285.038h-120.15818a2.73087 2.73087 0 0 1 -2.7756-2.48905 2.63061 2.63061 0 0 1 2.62677-2.77194h121.57147c2.64022 2.32 1.03128 5.261-1.26446 5.261z" fill="#ccc" transform="translate(-231.30512 -178)"/><path d="m708.73437 298.843h-120.15818a2.73086 2.73086 0 0 1 -2.7756-2.48905 2.63061 2.63061 0 0 1 2.62677-2.77194h121.57147c2.64022 2.32 1.03128 5.261-1.26446 5.261z" fill="#ccc" transform="translate(-231.30512 -178)"/><path d="m708.73437 312.656h-120.15818a2.73086 2.73086 0 0 1 -2.7756-2.489 2.63061 2.63061 0 0 1 2.62677-2.77194h121.57147c2.64022 2.32 1.03128 5.261-1.26446 5.261z" fill="#ccc" transform="translate(-231.30512 -178)"/><path d="m708.73437 326.462h-120.15818a2.73087 2.73087 0 0 1 -2.7756-2.48905 2.63062 2.63062 0 0 1 2.62677-2.77195h121.57147c2.64022 2.32 1.03128 5.261-1.26446 5.261z" fill="#ccc" transform="translate(-231.30512 -178)"/><path d="m692.69488 178a5.00573 5.00573 0 0 1 5 5v16a5.00573 5.00573 0 0 1 -5 5h-88a5.00573 5.00573 0 0 1 -5-5v-16a5.00573 5.00573 0 0 1 5-5" fill="#6c63ff" transform="translate(-231.30512 -178)"/><path d="m951.69488 509h-156a17.01917 17.01917 0 0 1 -17-17v-127a17.01917 17.01917 0 0 1 17-17h156a17.01917 17.01917 0 0 1 17 17v127a17.01917 17.01917 0 0 1 -17 17zm-156-159a15.017 15.017 0 0 0 -15 15v127a15.017 15.017 0 0 0 15 15h156a15.017 15.017 0 0 0 15-15v-127a15.017 15.017 0 0 0 -15-15z" fill="#3f3d56" transform="translate(-231.30512 -178)"/><path d="m933.96338 386.138h-78.73117a2.73088 2.73088 0 0 1 -2.77562-2.48906 2.63064 2.63064 0 0 1 2.62678-2.77193h80.14349c2.64021 2.32 1.03128 5.261-1.26446 5.261z" fill="#3f3d56" transform="translate(-231.30512 -178)"/><path d="m933.96338 399.948h-78.73117a2.73088 2.73088 0 0 1 -2.77562-2.48906 2.63064 2.63064 0 0 1 2.62678-2.77193h80.14349c2.64021 2.32 1.03128 5.261-1.26446 5.261z" fill="#3f3d56" transform="translate(-231.30512 -178)"/><path d="m838.21237 407.811h-24.028a2.962 2.962 0 0 1 -2.959-2.959v-28.355a2.962 2.962 0 0 1 2.959-2.959h24.028a2.963 2.963 0 0 1 2.959 2.959v28.355a2.962 2.962 0 0 1 -2.959 2.959z" fill="#ccc" transform="translate(-231.30512 -178)"/><path d="m933.21237 484.811h-24.028a2.962 2.962 0 0 1 -2.959-2.959v-16.355a2.962 2.962 0 0 1 2.959-2.959h24.028a2.963 2.963 0 0 1 2.959 2.959v16.355a2.962 2.962 0 0 1 -2.959 2.959z" fill="#3f3d56" transform="translate(-231.30512 -178)"/><path d="m933.73437 428.224h-120.15818a2.73087 2.73087 0 0 1 -2.7756-2.489 2.63061 2.63061 0 0 1 2.62677-2.77194h121.57147c2.64022 2.32 1.03128 5.261-1.26446 5.261z" fill="#ccc" transform="translate(-231.30512 -178)"/><path d="m933.73437 442.038h-120.15818a2.73087 2.73087 0 0 1 -2.7756-2.48905 2.63061 2.63061 0 0 1 2.62677-2.77194h121.57147c2.64022 2.32 1.03128 5.261-1.26446 5.261z" fill="#ccc" transform="translate(-231.30512 -178)"/><path d="m933.73437 455.843h-120.15818a2.73086 2.73086 0 0 1 -2.7756-2.48905 2.63061 2.63061 0 0 1 2.62677-2.77194h121.57147c2.64022 2.32 1.03128 5.261-1.26446 5.261z" fill="#ccc" transform="translate(-231.30512 -178)"/><path d="m870.73437 469.656h-57.15818a2.73086 2.73086 0 0 1 -2.7756-2.489 2.63061 2.63061 0 0 1 2.62677-2.77194h58.57147c2.64022 2.32 1.03128 5.261-1.26446 5.261z" fill="#ccc" transform="translate(-231.30512 -178)"/><path d="m870.73437 483.462h-57.15818a2.73087 2.73087 0 0 1 -2.7756-2.48905 2.63062 2.63062 0 0 1 2.62677-2.77195h58.57147c2.64022 2.32 1.03128 5.261-1.26446 5.261z" fill="#ccc" transform="translate(-231.30512 -178)"/><path d="m917.69488 361h-88a5.00573 5.00573 0 0 1 -5-5v-16a5.00573 5.00573 0 0 1 5-5h88a5.00573 5.00573 0 0 1 5 5v16a5.00573 5.00573 0 0 1 -5 5z" fill="#6c63ff" transform="translate(-231.30512 -178)"/><path d="m613.30512 722h-381a1 1 0 0 1 0-2h381a1 1 0 0 1 0 2z" fill="#3f3d56" transform="translate(-231.30512 -178)"/><g fill="#f2f2f2"><circle cx="96.76378" cy="23.3243" r="6.46689"/><circle cx="96.76378" cy="49.0976" r="6.46689"/><circle cx="96.76378" cy="74.8709" r="6.46689"/><circle cx="96.76378" cy="100.6442" r="6.46689"/><circle cx="123.76378" cy="23.3243" r="6.46689"/><circle cx="123.76378" cy="49.0976" r="6.46689"/><circle cx="123.76378" cy="74.8709" r="6.46689"/><circle cx="123.76378" cy="100.6442" r="6.46689"/><circle cx="150.76378" cy="23.3243" r="6.46689"/><circle cx="150.76378" cy="49.0976" r="6.46689"/><circle cx="150.76378" cy="74.8709" r="6.46689"/><circle cx="150.76378" cy="100.6442" r="6.46689"/><circle cx="177.76378" cy="23.3243" r="6.46689"/><circle cx="177.76378" cy="49.0976" r="6.46689"/><circle cx="177.76378" cy="74.8709" r="6.46689"/><circle cx="177.76378" cy="100.6442" r="6.46689"/><circle cx="204.76378" cy="23.3243" r="6.46689"/><circle cx="204.76378" cy="49.0976" r="6.46689"/><circle cx="204.76378" cy="74.8709" r="6.46689"/><circle cx="204.76378" cy="100.6442" r="6.46689"/><circle cx="231.76378" cy="23.3243" r="6.46689"/><circle cx="231.76378" cy="49.0976" r="6.46689"/><circle cx="231.76378" cy="74.8709" r="6.46689"/><circle cx="231.76378" cy="100.6442" r="6.46689"/><circle cx="601.76378" cy="381.3243" r="6.46689"/><circle cx="601.76378" cy="407.0976" r="6.46689"/><circle cx="601.76378" cy="432.8709" r="6.46689"/><circle cx="628.76378" cy="381.3243" r="6.46689"/><circle cx="628.76378" cy="407.0976" r="6.46689"/><circle cx="628.76378" cy="432.8709" r="6.46689"/><circle cx="655.76378" cy="381.3243" r="6.46689"/><circle cx="655.76378" cy="407.0976" r="6.46689"/><circle cx="655.76378" cy="432.8709" r="6.46689"/><circle cx="682.76378" cy="381.3243" r="6.46689"/><circle cx="682.76378" cy="407.0976" r="6.46689"/><circle cx="682.76378" cy="432.8709" r="6.46689"/></g></svg>