<?xml version="1.0" encoding="utf-8"?>
<!DOCTYPE svg PUBLIC "-//W3C//DTD SVG 1.1//EN" "http://www.w3.org/Graphics/SVG/1.1/DTD/svg11.dtd">
<svg version="1.1" xmlns="http://www.w3.org/2000/svg" xmlns:xlink="http://www.w3.org/1999/xlink" x="0px" y="0px" viewBox="0 0 1000 1000" enable-background="new 0 0 1000 1000" xml:space="preserve">
<metadata> Svg Vector Icons : http://www.onlinewebfonts.com/icon </metadata>
<g><path d="M500,990C229.8,990,10,770.2,10,500C10,229.8,229.8,10,500,10s490,219.8,490,490C990,770.2,770.2,990,500,990z M500,36.5C244.4,36.5,36.5,244.4,36.5,500S244.4,963.5,500,963.5S963.5,755.6,963.5,500S755.6,36.5,500,36.5z"/><path d="M599,187.4c-6.8,0-12.3,5.5-12.3,12.3v273H395.9c-42.5,0-77,34.5-77,77v181.6c0,6.8,5.5,12.3,12.3,12.3s12.3-5.5,12.3-12.3V549.7c0-28.9,23.4-52.3,52.3-52.3h190.8v233.9c0,6.8,5.5,12.3,12.3,12.3c6.8,0,12.3-5.5,12.3-12.3V199.8C611.3,193,605.8,187.4,599,187.4z"/></g>
</svg>