<?xml version="1.0" encoding="UTF-8"?>
<svg width="980px" height="980px" viewBox="0 0 980 980" version="1.1" xmlns="http://www.w3.org/2000/svg" xmlns:xlink="http://www.w3.org/1999/xlink">
    <title>Slice 1</title>
    <g id="Page-1" stroke="none" stroke-width="1" fill="none" fill-rule="evenodd">
        <g id="dark" fill="#FFFFFF" fill-rule="nonzero">
            <path d="M490,980 C219.8,980 0,760.2 0,490 C0,219.8 219.8,0 490,0 C760.2,0 980,219.8 980,490 C980,760.2 760.2,980 490,980 Z M490,26.5 C234.4,26.5 26.5,234.4 26.5,490 C26.5,745.6 234.4,953.5 490,953.5 C745.6,953.5 953.5,745.6 953.5,490 C953.5,234.4 745.6,26.5 490,26.5 Z" id="Shape"></path>
            <path d="M589,177.4 C582.2,177.4 576.7,182.9 576.7,189.7 L576.7,462.7 L385.9,462.7 C343.4,462.7 308.9,497.2 308.9,539.7 L308.9,721.3 C308.9,728.1 314.4,733.6 321.2,733.6 C328,733.6 333.5,728.1 333.5,721.3 L333.5,539.7 C333.5,510.8 356.9,487.4 385.8,487.4 L576.6,487.4 L576.6,721.3 C576.6,728.1 582.1,733.6 588.9,733.6 C595.7,733.6 601.201342,728.1 601.201342,721.3 L601.201342,189.8 C601.3,183 595.8,177.4 589,177.4 Z" id="Path"></path>
        </g>
    </g>
</svg>